<svg width="25" height="24" viewBox="0 0 25 24" fill="none" xmlns="http://www.w3.org/2000/svg">
<path d="M14.75 19.5009V15.0009C14.75 14.802 14.671 14.6113 14.5303 14.4706C14.3897 14.33 14.1989 14.2509 14 14.2509H11C10.8011 14.2509 10.6103 14.33 10.4697 14.4706C10.329 14.6113 10.25 14.802 10.25 15.0009V19.5009C10.25 19.6998 10.171 19.8906 10.0303 20.0313C9.88968 20.1719 9.69891 20.2509 9.5 20.2509H5C4.80109 20.2509 4.61032 20.1719 4.46967 20.0313C4.32902 19.8906 4.25 19.6998 4.25 19.5009V10.8291C4.25168 10.7253 4.27411 10.6229 4.31597 10.5279C4.35783 10.4329 4.41828 10.3472 4.49375 10.2759L11.9937 3.46031C12.132 3.33382 12.3126 3.26367 12.5 3.26367C12.6874 3.26367 12.868 3.33382 13.0062 3.46031L20.5062 10.2759C20.5817 10.3472 20.6422 10.4329 20.684 10.5279C20.7259 10.6229 20.7483 10.7253 20.75 10.8291V19.5009C20.75 19.6998 20.671 19.8906 20.5303 20.0313C20.3897 20.1719 20.1989 20.2509 20 20.2509H15.5C15.3011 20.2509 15.1103 20.1719 14.9697 20.0313C14.829 19.8906 14.75 19.6998 14.75 19.5009Z" stroke="#333132" stroke-width="2" stroke-linecap="round" stroke-linejoin="round"/>
</svg>
