<svg width="25" height="24" viewBox="0 0 25 24" fill="none" xmlns="http://www.w3.org/2000/svg">
<path d="M21.0127 9.72159L13.5127 2.90597C13.2362 2.65299 12.875 2.5127 12.5002 2.5127C12.1254 2.5127 11.7642 2.65299 11.4877 2.90597L3.9877 9.72159C3.83414 9.86208 3.7115 10.033 3.62757 10.2234C3.54364 10.4139 3.50027 10.6197 3.5002 10.8278V19.4622C3.4941 19.8404 3.62761 20.2075 3.8752 20.4935C4.01572 20.6533 4.18882 20.7811 4.38287 20.8684C4.57692 20.9558 4.78741 21.0005 5.0002 20.9997H9.5002C9.69911 20.9997 9.88988 20.9207 10.0305 20.78C10.1712 20.6394 10.2502 20.4486 10.2502 20.2497V15.7497C10.2502 15.5508 10.3292 15.36 10.4699 15.2194C10.6105 15.0787 10.8013 14.9997 11.0002 14.9997H14.0002C14.1991 14.9997 14.3899 15.0787 14.5305 15.2194C14.6712 15.36 14.7502 15.5508 14.7502 15.7497V20.2497C14.7502 20.4486 14.8292 20.6394 14.9699 20.78C15.1105 20.9207 15.3013 20.9997 15.5002 20.9997H20.0002C20.249 21.0019 20.4942 20.9406 20.7127 20.8216C20.9504 20.6921 21.149 20.5011 21.2875 20.2685C21.4261 20.036 21.4995 19.7704 21.5002 19.4997V10.8278C21.5001 10.6197 21.4568 10.4139 21.3728 10.2234C21.2889 10.033 21.1663 9.86208 21.0127 9.72159Z" fill="#67089E"/>
</svg>
