<svg width="390" height="844" viewBox="0 0 390 844" fill="none" xmlns="http://www.w3.org/2000/svg">
<rect width="390" height="844" rx="30" fill="white"/>
<rect opacity="0.35" x="344.5" y="17.8333" width="21" height="10.3333" rx="2.16667" stroke="#242A37"/>
<path opacity="0.4" d="M367 21V25C367.805 24.6612 368.328 23.8731 368.328 23C368.328 22.1269 367.805 21.3388 367 21Z" fill="#242A37"/>
<rect x="346" y="19.3333" width="18" height="7.33333" rx="1.33333" fill="#242A37"/>
<path fill-rule="evenodd" clip-rule="evenodd" d="M331.33 19.6079C333.546 19.608 335.677 20.4595 337.283 21.9862C337.404 22.1041 337.598 22.1026 337.717 21.9829L338.873 20.8162C338.933 20.7555 338.967 20.6733 338.966 20.5877C338.966 20.5021 338.931 20.4203 338.87 20.3602C334.655 16.3207 328.005 16.3207 323.79 20.3602C323.729 20.4202 323.694 20.502 323.694 20.5876C323.693 20.6732 323.727 20.7555 323.787 20.8162L324.943 21.9829C325.062 22.1028 325.256 22.1043 325.377 21.9862C326.983 20.4594 329.114 19.6079 331.33 19.6079ZM331.33 23.4036C332.548 23.4035 333.722 23.856 334.624 24.6732C334.746 24.7892 334.939 24.7867 335.058 24.6676L336.212 23.5009C336.273 23.4397 336.307 23.3567 336.306 23.2704C336.305 23.1842 336.27 23.1019 336.208 23.0419C333.459 20.4855 329.204 20.4855 326.455 23.0419C326.393 23.1019 326.358 23.1842 326.357 23.2705C326.356 23.3568 326.39 23.4398 326.451 23.5009L327.605 24.6676C327.724 24.7867 327.917 24.7892 328.039 24.6732C328.941 23.8566 330.114 23.4041 331.33 23.4036ZM333.643 25.9574C333.645 26.0439 333.611 26.1273 333.549 26.1879L331.552 28.2036C331.493 28.2628 331.414 28.2962 331.33 28.2962C331.247 28.2962 331.167 28.2628 331.109 28.2036L329.111 26.1879C329.049 26.1273 329.015 26.0438 329.017 25.9573C329.019 25.8708 329.056 25.7889 329.121 25.7309C330.396 24.652 332.264 24.652 333.54 25.7309C333.604 25.789 333.642 25.8709 333.643 25.9574Z" fill="#242A37"/>
<path fill-rule="evenodd" clip-rule="evenodd" d="M317.667 17.6667H316.667C316.114 17.6667 315.667 18.1144 315.667 18.6667V27.3333C315.667 27.8856 316.114 28.3333 316.667 28.3333H317.667C318.219 28.3333 318.667 27.8856 318.667 27.3333V18.6667C318.667 18.1144 318.219 17.6667 317.667 17.6667ZM312 20H313C313.552 20 314 20.4477 314 21V27.3333C314 27.8856 313.552 28.3333 313 28.3333H312C311.448 28.3333 311 27.8856 311 27.3333V21C311 20.4477 311.448 20 312 20ZM308.333 22.3333H307.333C306.781 22.3333 306.333 22.781 306.333 23.3333V27.3333C306.333 27.8856 306.781 28.3333 307.333 28.3333H308.333C308.886 28.3333 309.333 27.8856 309.333 27.3333V23.3333C309.333 22.781 308.886 22.3333 308.333 22.3333ZM303.667 24.3333H302.667C302.114 24.3333 301.667 24.781 301.667 25.3333V27.3333C301.667 27.8856 302.114 28.3333 302.667 28.3333H303.667C304.219 28.3333 304.667 27.8856 304.667 27.3333V25.3333C304.667 24.781 304.219 24.3333 303.667 24.3333Z" fill="#242A37"/>
<path d="M37.2979 24.0215C36.7829 24.5273 36.1813 24.7803 35.4932 24.7803C34.6136 24.7803 33.9095 24.4795 33.3809 23.8779C32.8522 23.2718 32.5879 22.4561 32.5879 21.4307C32.5879 20.779 32.7292 20.182 33.0117 19.6396C33.2988 19.0928 33.6976 18.6689 34.208 18.3682C34.7184 18.0628 35.2926 17.9102 35.9307 17.9102C36.5869 17.9102 37.1702 18.0742 37.6807 18.4023C38.1911 18.7305 38.5876 19.2021 38.8701 19.8174C39.1527 20.4326 39.2962 21.1367 39.3008 21.9297V22.6611C39.3008 24.32 38.8883 25.6234 38.0635 26.5713C37.2386 27.5192 36.0697 28.0251 34.5566 28.0889L34.0713 28.0957V26.4482L34.5088 26.4414C36.2269 26.3639 37.1566 25.5573 37.2979 24.0215ZM35.9785 23.2695C36.2975 23.2695 36.571 23.1875 36.7988 23.0234C37.0312 22.8594 37.2067 22.6611 37.3252 22.4287V21.6152C37.3252 20.9453 37.1976 20.4258 36.9424 20.0566C36.6872 19.6875 36.3454 19.5029 35.917 19.5029C35.5205 19.5029 35.1947 19.6852 34.9395 20.0498C34.6842 20.4098 34.5566 20.8633 34.5566 21.4102C34.5566 21.9525 34.6797 22.3991 34.9258 22.75C35.1764 23.0964 35.5273 23.2695 35.9785 23.2695ZM40.8936 27.0293C40.8936 26.7148 40.9984 26.4596 41.208 26.2637C41.4222 26.0677 41.6888 25.9697 42.0078 25.9697C42.3314 25.9697 42.598 26.0677 42.8076 26.2637C43.0218 26.4596 43.1289 26.7148 43.1289 27.0293C43.1289 27.3392 43.0241 27.5921 42.8145 27.7881C42.6048 27.9795 42.3359 28.0752 42.0078 28.0752C41.6842 28.0752 41.4176 27.9795 41.208 27.7881C40.9984 27.5921 40.8936 27.3392 40.8936 27.0293ZM40.8936 21.4307C40.8936 21.1162 40.9984 20.861 41.208 20.665C41.4222 20.4691 41.6888 20.3711 42.0078 20.3711C42.3314 20.3711 42.598 20.4691 42.8076 20.665C43.0218 20.861 43.1289 21.1162 43.1289 21.4307C43.1289 21.7406 43.0241 21.9935 42.8145 22.1895C42.6048 22.3809 42.3359 22.4766 42.0078 22.4766C41.6842 22.4766 41.4176 22.3809 41.208 22.1895C40.9984 21.9935 40.8936 21.7406 40.8936 21.4307ZM51.3662 23.8848C51.3662 25.2611 51.0814 26.3138 50.5117 27.043C49.9421 27.7721 49.1081 28.1367 48.0098 28.1367C46.9251 28.1367 46.0957 27.779 45.5215 27.0635C44.9473 26.348 44.6533 25.3226 44.6396 23.9873V22.1553C44.6396 20.7653 44.9268 19.7103 45.501 18.9902C46.0798 18.2702 46.9115 17.9102 47.9961 17.9102C49.0807 17.9102 49.9102 18.2679 50.4844 18.9834C51.0586 19.6943 51.3525 20.7174 51.3662 22.0527V23.8848ZM49.3906 21.875C49.3906 21.0501 49.2767 20.4508 49.0488 20.0771C48.8255 19.6989 48.4746 19.5098 47.9961 19.5098C47.5312 19.5098 47.1872 19.6898 46.9639 20.0498C46.7451 20.4053 46.6289 20.9635 46.6152 21.7246V24.1445C46.6152 24.9557 46.7246 25.5596 46.9434 25.9561C47.1667 26.348 47.5221 26.5439 48.0098 26.5439C48.4928 26.5439 48.8415 26.3548 49.0557 25.9766C49.2699 25.5983 49.3815 25.0195 49.3906 24.2402V21.875ZM57.3271 24.0215C56.8122 24.5273 56.2106 24.7803 55.5225 24.7803C54.6429 24.7803 53.9388 24.4795 53.4102 23.8779C52.8815 23.2718 52.6172 22.4561 52.6172 21.4307C52.6172 20.779 52.7585 20.182 53.041 19.6396C53.3281 19.0928 53.7269 18.6689 54.2373 18.3682C54.7477 18.0628 55.3219 17.9102 55.96 17.9102C56.6162 17.9102 57.1995 18.0742 57.71 18.4023C58.2204 18.7305 58.6169 19.2021 58.8994 19.8174C59.182 20.4326 59.3255 21.1367 59.3301 21.9297V22.6611C59.3301 24.32 58.9176 25.6234 58.0928 26.5713C57.2679 27.5192 56.099 28.0251 54.5859 28.0889L54.1006 28.0957V26.4482L54.5381 26.4414C56.2562 26.3639 57.1859 25.5573 57.3271 24.0215ZM56.0078 23.2695C56.3268 23.2695 56.6003 23.1875 56.8281 23.0234C57.0605 22.8594 57.236 22.6611 57.3545 22.4287V21.6152C57.3545 20.9453 57.2269 20.4258 56.9717 20.0566C56.7165 19.6875 56.3747 19.5029 55.9463 19.5029C55.5498 19.5029 55.224 19.6852 54.9688 20.0498C54.7135 20.4098 54.5859 20.8633 54.5859 21.4102C54.5859 21.9525 54.709 22.3991 54.9551 22.75C55.2057 23.0964 55.5566 23.2695 56.0078 23.2695Z" fill="#242A37"/>
<rect x="128" y="831" width="134" height="5" rx="2.5" fill="black"/>
<g clip-path="url(#clip0_2517_10893)">
<path d="M171.92 344.05L178.14 359.05C178.311 359.373 178.373 359.743 178.315 360.104C178.257 360.465 178.084 360.797 177.82 361.05L145.06 393.78L159.88 419.45C160.06 419.703 160.167 420.001 160.189 420.311C160.211 420.62 160.147 420.93 160.004 421.206C159.862 421.482 159.646 421.713 159.381 421.874C159.115 422.036 158.81 422.121 158.5 422.12H141.02C140.723 422.113 140.434 422.03 140.178 421.88C139.923 421.729 139.71 421.516 139.56 421.26L122.66 391.99C122.433 391.663 122.327 391.267 122.362 390.871C122.396 390.474 122.569 390.102 122.85 389.82L151.15 361.52H122.89L107.01 420.76C106.932 421.141 106.726 421.484 106.426 421.732C106.125 421.979 105.749 422.116 105.36 422.12H89.6899C89.5421 422.11 89.3951 422.09 89.2499 422.06C88.8179 421.943 88.4499 421.659 88.2268 421.271C88.0037 420.883 87.9437 420.422 88.0599 419.99L103.7 361.56C103.8 361.199 104.014 360.88 104.31 360.65L127.66 343.41C127.971 343.143 128.369 342.997 128.78 343H170.36C170.694 343.003 171.02 343.105 171.297 343.291C171.574 343.478 171.791 343.742 171.92 344.05Z" fill="#4FD7A5"/>
<path d="M147.21 397.5L159.88 419.45V419.51C160.012 419.765 160.077 420.05 160.069 420.337C160.061 420.625 159.981 420.905 159.835 421.153C159.689 421.401 159.483 421.608 159.235 421.754C158.988 421.9 158.707 421.981 158.42 421.99H141C140.717 421.979 140.441 421.9 140.195 421.759C139.949 421.618 139.742 421.419 139.59 421.18L131.59 407.25L145.13 393.7L147.21 397.5Z" fill="#606062"/>
<path fill-rule="evenodd" clip-rule="evenodd" d="M127.77 343H170.42L150.95 361.52H122.89L127.77 343Z" fill="#4EAD89"/>
<path d="M301.12 419.7C299.701 420.485 298.18 421.067 296.6 421.43C294.908 421.849 293.172 422.061 291.43 422.06C288.321 422.197 285.281 421.122 282.95 419.06C281.848 417.986 280.989 416.689 280.43 415.256C279.871 413.822 279.626 412.286 279.71 410.75V395.56H274.8V387.83H279.71V378.01H291.3V387.83H300.47V395.56H291.3V408.91C291.3 411.4 292.3 412.65 294.38 412.65C295.948 412.571 297.483 412.169 298.89 411.47L301.12 419.7Z" fill="#606062"/>
<path d="M257.58 386.1H269.16V401.32V421.53H257.58V386.1Z" fill="#606062"/>
<path d="M249.32 381.72C248.269 381.685 247.243 382.041 246.44 382.72C246.059 383.08 245.763 383.519 245.571 384.006C245.379 384.494 245.297 385.017 245.33 385.54V387.83H253.19V395.56H245.33V421.56H233.74V395.56H228.96V387.83H233.74V384.56C233.661 382.884 233.963 381.212 234.625 379.67C235.287 378.128 236.29 376.757 237.56 375.66C240.269 373.43 243.704 372.277 247.21 372.42C249.805 372.423 252.379 372.891 254.81 373.8L253.3 382.63C252.044 382.127 250.719 381.82 249.37 381.72" fill="#606062"/>
<path d="M222.42 372.94H210.76V421.53H222.42V372.94Z" fill="#4EAD89"/>
<path d="M201.52 386.1H189.93V421.53H201.52V386.1Z" fill="#4EAD89"/>
<path d="M181.03 386.1H169.44V421.53H181.03V386.1Z" fill="#4EAD89"/>
<path fill-rule="evenodd" clip-rule="evenodd" d="M175.23 369.89C176.566 369.888 177.873 370.282 178.984 371.023C180.096 371.764 180.962 372.818 181.475 374.052C181.987 375.286 182.121 376.644 181.861 377.954C181.601 379.265 180.958 380.468 180.013 381.413C179.069 382.357 177.865 383.001 176.555 383.261C175.244 383.521 173.886 383.386 172.653 382.874C171.419 382.362 170.365 381.495 169.624 380.384C168.883 379.272 168.488 377.966 168.49 376.63C168.493 374.843 169.204 373.13 170.467 371.867C171.731 370.603 173.444 369.893 175.23 369.89Z" fill="#4EAD89"/>
<path fill-rule="evenodd" clip-rule="evenodd" d="M195.73 369.89C197.066 369.888 198.373 370.282 199.484 371.023C200.596 371.764 201.462 372.818 201.975 374.052C202.487 375.286 202.621 376.644 202.361 377.954C202.101 379.265 201.458 380.468 200.513 381.413C199.569 382.357 198.365 383.001 197.055 383.261C195.744 383.521 194.386 383.386 193.153 382.874C191.919 382.362 190.865 381.495 190.124 380.384C189.383 379.272 188.988 377.966 188.99 376.63C188.99 374.842 189.7 373.128 190.964 371.864C192.228 370.6 193.943 369.89 195.73 369.89Z" fill="#4EAD89"/>
<path fill-rule="evenodd" clip-rule="evenodd" d="M263.37 369.89C264.706 369.888 266.012 370.282 267.124 371.023C268.235 371.764 269.102 372.818 269.614 374.052C270.126 375.286 270.261 376.644 270.001 377.954C269.741 379.265 269.097 380.468 268.153 381.413C267.208 382.357 266.005 383.001 264.694 383.261C263.384 383.521 262.026 383.386 260.792 382.874C259.558 382.362 258.504 381.495 257.763 380.384C257.022 379.272 256.628 377.966 256.63 376.63C256.63 374.842 257.34 373.128 258.604 371.864C259.868 370.6 261.582 369.89 263.37 369.89Z" fill="#606062"/>
</g>
<defs>
<clipPath id="clip0_2517_10893">
<rect width="213.12" height="79.11" fill="white" transform="translate(88 343)"/>
</clipPath>
</defs>
</svg>
